name ./resultDataOpenSim/trcMotMarkerGrf/sub10/grf-12-02.mot
datacolumns 19
datarows 20
range 0.92000000 0.99600000
endheader

                time	     ground_force_vx	     ground_force_vy	     ground_force_vz	     ground_force_px	     ground_force_py	     ground_force_pz	   l_ground_force_vx	   l_ground_force_vy	   l_ground_force_vz	   l_ground_force_px	   l_ground_force_py	   l_ground_force_pz	     ground_torque_x	     ground_torque_y	     ground_torque_z	   l_ground_torque_x	   l_ground_torque_y	   l_ground_torque_z	
          0.92000000	          0.00000000	          0.00000000	          0.00000000	          0.00000000	          0.00000000	          0.00000000	         14.68403509	        461.79423967	         19.12489029	         -0.01432835	         -0.02500080	         -0.09213554	          0.00000000	          0.00000000	          0.00000000	          0.00000000	         -3.49641934	          0.00000000	
          0.92400000	          0.00000000	          0.00000000	          0.00000000	          0.00000000	          0.00000000	          0.00000000	         17.18693858	        473.32216325	         21.61588042	         -0.01264961	         -0.02500100	         -0.09178961	          0.00000000	          0.00000000	          0.00000000	          0.00000000	         -3.39231332	          0.00000000	
          0.92800000	          0.00000000	          0.00000000	          0.00000000	          0.00000000	          0.00000000	          0.00000000	         19.93282894	        485.78523510	         23.74042634	         -0.01121675	         -0.02500136	         -0.09146816	          0.00000000	          0.00000000	          0.00000000	          0.00000000	         -3.32670794	          0.00000000	
          0.93200000	          0.00000000	          0.00000000	          0.00000000	          0.00000000	          0.00000000	          0.00000000	         23.04115147	        499.10017078	         25.26597715	         -0.01003514	         -0.02500184	         -0.09119049	          0.00000000	          0.00000000	          0.00000000	          0.00000000	         -3.31605182	          0.00000000	
          0.93600000	          0.00000000	          0.00000000	          0.00000000	          0.00000000	          0.00000000	          0.00000000	         26.60334368	        513.31173197	         26.09265952	         -0.00904169	         -0.02500200	         -0.09092376	          0.00000000	          0.00000000	          0.00000000	          0.00000000	         -3.37035373	          0.00000000	
          0.94000000	          0.00000000	          0.00000000	          0.00000000	          0.00000000	          0.00000000	          0.00000000	         30.62498141	        528.56406469	         26.25451023	         -0.00815128	         -0.02500200	         -0.09061690	          0.00000000	          0.00000000	          0.00000000	          0.00000000	         -3.49244031	          0.00000000	
          0.94400000	          0.00000000	          0.00000000	          0.00000000	          0.00000000	          0.00000000	          0.00000000	         35.00275399	        545.01539325	         25.88768374	         -0.00731318	         -0.02500200	         -0.09024789	          0.00000000	          0.00000000	          0.00000000	          0.00000000	         -3.67847147	          0.00000000	
          0.94800000	          0.00000000	          0.00000000	          0.00000000	          0.00000000	          0.00000000	          0.00000000	         39.54199906	        562.75894699	         25.18470481	         -0.00650320	         -0.02500252	         -0.08981626	          0.00000000	          0.00000000	          0.00000000	          0.00000000	         -3.91919243	          0.00000000	
          0.95200000	          0.00000000	          0.00000000	          0.00000000	          0.00000000	          0.00000000	          0.00000000	         44.01980219	        581.76389572	         24.34868596	         -0.00569899	         -0.02500300	         -0.08933504	          0.00000000	          0.00000000	          0.00000000	          0.00000000	         -4.20146372	          0.00000000	
          0.95600000	          0.00000000	          0.00000000	          0.00000000	          0.00000000	          0.00000000	          0.00000000	         48.27784326	        601.85171973	         23.56310710	         -0.00489496	         -0.02500300	         -0.08883199	          0.00000000	          0.00000000	          0.00000000	          0.00000000	         -4.50987908	          0.00000000	
          0.96000000	          0.00000000	          0.00000000	          0.00000000	          0.00000000	          0.00000000	          0.00000000	         52.29130355	        622.71476878	         22.97855343	         -0.00410345	         -0.02500300	         -0.08834018	          0.00000000	          0.00000000	          0.00000000	          0.00000000	         -4.82849890	          0.00000000	
          0.96400000	          0.00000000	          0.00000000	          0.00000000	          0.00000000	          0.00000000	          0.00000000	         56.16611034	        643.96458201	         22.70412129	         -0.00332632	         -0.02500336	         -0.08788116	          0.00000000	          0.00000000	          0.00000000	          0.00000000	         -5.14270597	          0.00000000	
          0.96800000	          0.00000000	          0.00000000	          0.00000000	          0.00000000	          0.00000000	          0.00000000	         60.07675820	        665.19153430	         22.79374480	         -0.00255488	         -0.02500373	         -0.08745467	          0.00000000	          0.00000000	          0.00000000	          0.00000000	         -5.44095552	          0.00000000	
          0.97200000	          0.00000000	          0.00000000	          0.00000000	          0.00000000	          0.00000000	          0.00000000	         64.20239620	        686.00427096	         23.23303891	         -0.00178155	         -0.02500340	         -0.08704820	          0.00000000	          0.00000000	          0.00000000	          0.00000000	         -5.71597581	          0.00000000	
          0.97600000	          0.00000000	          0.00000000	          0.00000000	          0.00000000	          0.00000000	          0.00000000	         68.68384107	        706.04286053	         23.94591606	         -0.00099174	         -0.02500400	         -0.08664995	          0.00000000	          0.00000000	          0.00000000	          0.00000000	         -5.96504226	          0.00000000	
          0.98000000	          0.00000000	          0.00000000	          0.00000000	          0.00000000	          0.00000000	          0.00000000	         73.59001263	        724.98599368	         24.82230298	         -0.00017468	         -0.02500393	         -0.08625397	          0.00000000	          0.00000000	          0.00000000	          0.00000000	         -6.18928898	          0.00000000	
          0.98400000	          0.00000000	          0.00000000	          0.00000000	          0.00000000	          0.00000000	          0.00000000	         78.91289785	        742.55974588	         25.73982202	          0.00065592	         -0.02500356	         -0.08586046	          0.00000000	          0.00000000	          0.00000000	          0.00000000	         -6.39236038	          0.00000000	
          0.98800000	          0.00000000	          0.00000000	          0.00000000	          0.00000000	          0.00000000	          0.00000000	         84.60339699	        758.55165476	         26.57299724	          0.00148489	         -0.02500300	         -0.08547091	          0.00000000	          0.00000000	          0.00000000	          0.00000000	         -6.57883467	          0.00000000	
          0.99200000	          0.00000000	          0.00000000	          0.00000000	          0.00000000	          0.00000000	          0.00000000	         90.60540412	        772.82862147	         27.21267237	          0.00231911	         -0.02500300	         -0.08507654	          0.00000000	          0.00000000	          0.00000000	          0.00000000	         -6.75279864	          0.00000000	
          0.99600000	          0.00000000	          0.00000000	          0.00000000	          0.00000000	          0.00000000	          0.00000000	         96.85887440	        785.32500636	         27.59596535	          0.00314801	         -0.02500300	         -0.08467169	          0.00000000	          0.00000000	          0.00000000	          0.00000000	         -6.91682545	          0.00000000	
